FILE "Frog Feast (demo) (2007-09-25)(RasterSoft).bin" BINARY
  TRACK 01 MODE1/2352
    INDEX 01 00:00:00
  TRACK 02 AUDIO
    INDEX 01 00:06:41
  TRACK 03 AUDIO
    INDEX 01 00:48:50
  TRACK 04 AUDIO
    INDEX 01 03:07:07
